<svg width="81" height="98" viewBox="0 0 81 98" fill="none" xmlns="http://www.w3.org/2000/svg">
<path d="M6.27966 68.0294H0.752441L31.3496 10.2754H36.9897L48.4107 68.0294H42.8836L33.2673 17.128H32.9007L6.27966 68.0294ZM13.9501 45.8922H42.6017L41.8119 50.6299H13.1605L13.9501 45.8922Z" fill="white"/>
<path d="M47.0722 80.4014C43.3573 80.4014 40.294 79.4818 37.883 77.6422C35.4719 75.8022 33.7841 73.2841 32.8196 70.0874C31.8731 66.8724 31.7391 63.229 32.4178 59.1567C33.0965 55.0134 34.4628 51.343 36.5167 48.1459C38.5706 44.9313 41.1067 42.4128 44.1252 40.5911C47.1615 38.7515 50.4746 37.8319 54.0644 37.8319C56.8327 37.8319 59.2436 38.3675 61.2976 39.4392C63.3516 40.493 64.941 41.9844 66.0663 43.9133C67.1915 45.8243 67.7272 48.0566 67.6735 50.6108H62.8513C62.7266 48.2352 61.8602 46.2349 60.2529 44.6097C58.6631 42.9845 56.413 42.1718 53.5017 42.1718C50.8406 42.1718 48.3757 42.8861 46.1077 44.3151C43.8393 45.7258 41.9195 47.6996 40.3476 50.2356C38.7938 52.7538 37.7491 55.6741 37.2132 58.9959C36.6417 62.336 36.6953 65.2917 37.374 67.8634C38.0526 70.4177 39.2671 72.4181 41.0174 73.8646C42.7855 75.3111 45.0182 76.0345 47.715 76.0345C49.5546 76.0345 51.2869 75.6954 52.9121 75.0165C54.5377 74.32 55.9754 73.3377 57.2253 72.0695C58.4757 70.7838 59.4314 69.2746 60.0921 67.5422H64.9144C64.1107 70.0425 62.8425 72.2573 61.1102 74.1862C59.3957 76.1151 57.3417 77.6331 54.9482 78.7405C52.5551 79.8479 49.9298 80.4014 47.0722 80.4014Z" fill="white"/>
<path d="M36.4866 11.0726L32.8275 11.7861L39.3267 45.113L42.9858 44.3994L36.4866 11.0726Z" fill="#FFA723"/>
<path d="M22.8608 35.2258L19.5641 33.4852L2.66304 65.497L5.9598 67.2376L22.8608 35.2258Z" fill="#FFA723"/>
<path d="M48.2427 78.75C55.3696 78.75 61.1471 74.5724 61.1471 69.4191C61.1471 64.2658 55.3696 60.0883 48.2427 60.0883C41.1158 60.0883 35.3383 64.2658 35.3383 69.4191C35.3383 74.5724 41.1158 78.75 48.2427 78.75Z" fill="#FFA723"/>
<path d="M49.8308 76.7647C58.2735 76.7647 65.1176 71.9649 65.1176 66.0441C65.1176 60.1233 58.2735 55.3235 49.8308 55.3235C41.3882 55.3235 34.5441 60.1233 34.5441 66.0441C34.5441 71.9649 41.3882 76.7647 49.8308 76.7647Z" fill="white"/>
<path d="M44.1159 74.3785C50.9373 77.227 59.4851 72.3087 63.2081 63.3933C66.9311 54.4778 64.4194 44.9413 57.598 42.0928C50.7766 39.2442 42.2288 44.1625 38.5058 53.0779C34.7828 61.9934 37.2945 71.5299 44.1159 74.3785Z" fill="#7291FF"/>
<path d="M39.7146 48.066L39.0244 43.175L42.9895 44.3682L39.7146 48.066Z" fill="#FFA723"/>
<path d="M5.96159 67.2424L1.86267 67.0832L3.46019 63.9913L5.96159 67.2424Z" fill="#FFA723"/>
</svg>
