<svg width="204" height="269" viewBox="0 0 204 269" fill="none" xmlns="http://www.w3.org/2000/svg">
<path d="M15.8153 194H1.89489L78.9545 48.5455H93.1591L121.923 194H108.003L83.7841 65.804H82.8608L15.8153 194ZM35.1335 138.247H107.293L105.304 150.179H33.1449L35.1335 138.247Z" fill="black"/>
<path d="M118.552 225.159C109.196 225.159 101.481 222.843 95.4089 218.21C89.3365 213.576 85.0858 207.234 82.6568 199.183C80.2728 191.086 79.9354 181.91 81.6447 171.654C83.354 161.219 86.795 151.975 91.9679 143.923C97.1407 135.827 103.528 129.484 111.13 124.896C118.777 120.263 127.121 117.947 136.162 117.947C143.134 117.947 149.206 119.296 154.379 121.995C159.552 124.649 163.555 128.405 166.389 133.263C169.223 138.076 170.572 143.698 170.437 150.131H158.292C157.978 144.148 155.796 139.11 151.748 135.017C147.744 130.924 142.077 128.877 134.745 128.877C128.043 128.877 121.835 130.676 116.123 134.275C110.41 137.828 105.575 142.799 101.616 149.186C97.7029 155.528 95.0716 162.883 93.7221 171.249C92.2827 179.661 92.4177 187.105 94.127 193.582C95.8362 200.015 98.8949 205.053 103.303 208.696C107.756 212.339 113.379 214.161 120.171 214.161C124.804 214.161 129.167 213.307 133.26 211.597C137.354 209.843 140.975 207.369 144.123 204.175C147.272 200.937 149.679 197.136 151.343 192.773H163.488C161.464 199.07 158.27 204.648 153.907 209.506C149.589 214.364 144.416 218.187 138.388 220.976C132.361 223.765 125.749 225.159 118.552 225.159Z" fill="black"/>
<rect x="82.6768" y="52.3503" width="9.38911" height="85.5154" transform="rotate(-11.0349 82.6768 52.3503)" fill="#FFA723"/>
<rect x="49.2725" y="107" width="9.38911" height="91.2303" transform="rotate(27.8324 49.2725 107)" fill="#7291FF"/>
<ellipse cx="121.5" cy="197.5" rx="32.5" ry="23.5" fill="#FFA723"/>
<ellipse cx="125.5" cy="189" rx="38.5" ry="27" fill="black"/>
<ellipse cx="128.084" cy="169.334" rx="33.7099" ry="44.0585" transform="rotate(22.6648 128.084 169.334)" fill="url(#paint0_linear_31_40)"/>
<path d="M100.022 143.722L98.2838 131.404L108.27 134.409L100.022 143.722Z" fill="#FFA723"/>
<path d="M14.9053 192.062L4.62317 191.687L8.65008 183.892L14.9053 192.062Z" fill="#7291FF"/>
<defs>
<linearGradient id="paint0_linear_31_40" x1="128.084" y1="125.275" x2="128.084" y2="213.392" gradientUnits="userSpaceOnUse">
<stop stop-color="#F2F2F2"/>
<stop offset="1" stop-color="white"/>
</linearGradient>
</defs>
</svg>
